HIERARCHY
ROOT Hips
{
	OFFSET 0.000000 0.000000 0.000000
	CHANNELS 6 Xposition Yposition Zposition Zrotation Yrotation Xrotation 
	JOINT LHipJoint
	{
		OFFSET 0.000000 0.000000 0.000000
		CHANNELS 3 Zrotation Yrotation Xrotation
		JOINT LeftUpLeg
		{
			OFFSET 1.363060 -1.794630 0.839290
			CHANNELS 3 Zrotation Yrotation Xrotation
			JOINT LeftLeg
			{
				OFFSET 2.448110 -6.726130 0.000000
				CHANNELS 3 Zrotation Yrotation Xrotation
				JOINT LeftFoot
				{
					OFFSET 2.562200 -7.039590 0.000000
					CHANNELS 3 Zrotation Yrotation Xrotation
					JOINT LeftToeBase
					{
						OFFSET 0.157640 -0.433110 2.322550
						CHANNELS 3 Zrotation Yrotation Xrotation
						End Site
						{
							OFFSET 0.000000 0.000000 0.000000
						}
					}
				}
			}
		}
	}
	JOINT RHipJoint
	{
		OFFSET 0.000000 0.000000 0.000000
		CHANNELS 3 Zrotation Yrotation Xrotation
		JOINT RightUpLeg
		{
			OFFSET -1.305520 -1.794630 0.839290
			CHANNELS 3 Zrotation Yrotation Xrotation
			JOINT RightLeg
			{
				OFFSET -2.542530 -6.985550 0.000000
				CHANNELS 3 Zrotation Yrotation Xrotation
				JOINT RightFoot
				{
					OFFSET -2.568260 -7.056230 0.000000
					CHANNELS 3 Zrotation Yrotation Xrotation
					JOINT RightToeBase
					{
						OFFSET -0.164730 -0.452590 2.363150
						CHANNELS 3 Zrotation Yrotation Xrotation
						End Site
						{
							OFFSET 0.000000 0.000000 0.000000
						}
					}
				}
			}
		}
	}
	JOINT LowerBack
	{
		OFFSET 0.000000 0.000000 0.000000
		CHANNELS 3 Zrotation Yrotation Xrotation
		JOINT Spine
		{
			OFFSET 0.028270 2.035590 -0.193380
			CHANNELS 3 Zrotation Yrotation Xrotation
			JOINT Spine1
			{
				OFFSET 0.056720 2.048850 -0.042750
				CHANNELS 3 Zrotation Yrotation Xrotation
				JOINT Neck
				{
					OFFSET 0.000000 0.000000 0.000000
					CHANNELS 3 Zrotation Yrotation Xrotation
					JOINT Neck1
					{
						OFFSET -0.054170 1.746240 0.172020
						CHANNELS 3 Zrotation Yrotation Xrotation
						JOINT Head
						{
							OFFSET 0.104070 1.761360 -0.123970
							CHANNELS 3 Zrotation Yrotation Xrotation
							End Site
							{
								OFFSET 0.000000 0.000000 0.000000
							}
						}
					}
				}
				JOINT LeftShoulder
				{
					OFFSET 0.000000 0.000000 0.000000
					CHANNELS 3 Zrotation Yrotation Xrotation
					JOINT LeftArm
					{
						OFFSET 3.362410 1.200890 -0.311210
						CHANNELS 3 Zrotation Yrotation Xrotation
						JOINT LeftForeArm
						{
							OFFSET 4.983000 -0.000000 -0.000000
							CHANNELS 3 Zrotation Yrotation Xrotation
							JOINT LeftHand
							{
								OFFSET 3.483560 -0.000000 -0.000000
								CHANNELS 3 Zrotation Yrotation Xrotation
								JOINT LeftFingerBase
								{
									OFFSET 0.000000 0.000000 0.000000
									CHANNELS 3 Zrotation Yrotation Xrotation
									JOINT LeftHandIndex1
									{
										OFFSET 0.715260 -0.000000 -0.000000
										CHANNELS 3 Zrotation Yrotation Xrotation
										End Site
										{
											OFFSET 0.000000 0.000000 0.000000
										}
									}
								}
								JOINT LThumb
								{
									OFFSET 0.000000 0.000000 0.000000
									CHANNELS 3 Zrotation Yrotation Xrotation
									End Site
									{
										OFFSET 0.000000 0.000000 0.000000
									}
								}
							}
						}
					}
				}
				JOINT RightShoulder
				{
					OFFSET 0.000000 0.000000 0.000000
					CHANNELS 3 Zrotation Yrotation Xrotation
					JOINT RightArm
					{
						OFFSET -3.136600 1.374050 -0.404650
						CHANNELS 3 Zrotation Yrotation Xrotation
						JOINT RightForeArm
						{
							OFFSET -5.241900 -0.000000 -0.000000
							CHANNELS 3 Zrotation Yrotation Xrotation
							JOINT RightHand
							{
								OFFSET -3.444170 -0.000000 -0.000000
								CHANNELS 3 Zrotation Yrotation Xrotation
								JOINT RightFingerBase
								{
									OFFSET 0.000000 0.000000 0.000000
									CHANNELS 3 Zrotation Yrotation Xrotation
									JOINT RightHandIndex1
									{
										OFFSET -0.622530 -0.000000 -0.000000
										CHANNELS 3 Zrotation Yrotation Xrotation
										End Site
										{
											OFFSET 0.000000 0.000000 0.000000
										}
									}
								}
								JOINT RThumb
								{
									OFFSET 0.000000 0.000000 0.000000
									CHANNELS 3 Zrotation Yrotation Xrotation
									End Site
									{
										OFFSET 0.000000 0.000000 0.000000
									}
								}
							}
						}
					}
				}
			}
		}
	}
}
MOTION
Frames: 10
Frame Time: 0.008333
-0.269393 17.279056 5.068576 5.739830 -0.727533 -2.642868 13.698240 1.301594 -2.041541 -44.269481 -12.793575 3.368258 -2.236602 9.686924 25.685626 -0.455068 5.177412 -9.190629 0.466889 4.371067 12.124745 -16.211731 -1.186266 -1.349885 27.254500 13.300409 -25.093294 -8.781754 -21.514930 61.228140 -0.104215 -2.890942 -9.371061 -1.865378 -8.578524 24.486405 -5.535022 0.120044 13.577959 -0.427613 -1.189356 1.704440 4.914102 0.821562 -14.808979 -6.262356 -4.983691 -13.122272 3.714140 -6.228493 14.156397 0.065643 -2.891191 8.227286 -8.525461 -0.170757 0.142695 -75.335437 6.530429 31.976548 12.813700 -29.626849 -2.981037 0.100419 2.654826 -1.598488 7.057269 20.766750 2.136627 -7.125000 0.000000 0.000000 -20.123636 47.146056 -1.137467 10.791081 1.629557 -0.843808 67.510318 -21.153593 25.180024 -9.408150 29.091941 -2.216806 -0.652633 1.229552 10.764931 -11.878265 24.784480 -4.553778 7.125000 0.000000 0.000000 11.342542 -6.184070 10.181445
-0.274280 17.277748 5.153307 5.699969 -0.677739 -2.532293 13.673346 1.308129 -2.087462 -44.253862 -12.622365 3.713547 -2.271878 9.567386 25.462243 -0.472203 5.289689 -9.321199 0.377066 3.941800 10.913236 -16.193426 -1.147844 -1.285025 27.156526 13.886415 -25.342638 -8.241078 -21.334265 59.705403 -0.107053 -3.043346 -9.565519 -1.781935 -8.396173 23.924015 -5.572627 0.116626 13.615836 -0.377670 -1.203607 1.661511 5.003131 0.827121 -14.890643 -6.334995 -5.122456 -13.107885 3.697917 -6.407829 14.100262 0.053529 -2.982174 8.203059 -8.533720 -0.176910 0.138427 -75.298837 6.531816 32.421491 12.744351 -29.529422 -2.938696 0.298396 2.484857 -0.661563 8.269461 19.093064 2.283282 -7.125000 0.000000 0.000000 -18.571909 45.866567 -0.415600 10.821609 1.629650 -0.846100 67.486535 -21.353350 25.272732 -9.577774 29.411718 -2.405601 -0.847318 1.734249 10.204736 -13.897321 31.133791 -6.401133 7.125000 0.000000 0.000000 10.547026 -0.097011 10.700534
-0.277536 17.276310 5.239801 5.630984 -0.669104 -2.439657 13.648786 1.312752 -2.133887 -44.250883 -12.516084 4.191344 -2.319171 9.411378 25.170142 -0.486226 5.410373 -9.532895 0.332632 3.702210 10.240826 -16.178632 -1.107285 -1.225686 27.068118 14.494900 -25.505996 -7.693138 -21.116740 58.137251 -0.102150 -3.191218 -9.594552 -1.889391 -8.629097 24.643432 -5.548223 0.131708 13.633383 -0.338291 -1.178894 1.650376 5.006267 0.838886 -14.922420 -6.352662 -5.165195 -13.098493 3.683130 -6.462874 14.107133 0.045631 -3.010846 8.204366 -8.580721 -0.178029 0.163558 -75.236643 6.422427 32.397300 13.362198 -30.257014 -3.145975 0.100059 2.626257 -1.649285 7.176074 20.611369 2.157240 -7.125000 0.000000 0.000000 -19.967794 47.040611 -1.077617 10.834852 1.630364 -0.862861 67.572120 -21.523161 25.250609 -9.711097 29.464814 -2.326280 -0.718169 1.362430 10.281224 -12.370443 26.705401 -5.033557 7.125000 0.000000 0.000000 11.135577 -4.350050 10.405628
-0.280757 17.275546 5.327645 5.616931 -0.652018 -2.355859 13.625720 1.318608 -2.180481 -44.298235 -12.391428 4.689794 -2.372699 9.244524 24.848848 -0.485469 5.462206 -9.744196 0.303472 3.541518 9.790273 -16.159677 -1.067167 -1.171129 26.909520 15.094021 -25.625775 -7.146819 -20.875782 56.550681 -0.100013 -3.308060 -9.635059 -2.018844 -8.902233 25.491915 -5.574699 0.144002 13.641271 -0.317002 -1.166578 1.644588 5.020882 0.847427 -14.939358 -6.354209 -5.200661 -13.120710 3.677239 -6.508329 14.123114 0.038601 -3.032277 8.214346 -8.626002 -0.177319 0.185565 -75.172051 6.313466 32.381216 13.915441 -30.903108 -3.332277 -0.059982 2.731731 -2.439402 6.300313 21.783979 2.046858 -7.125000 0.000000 0.000000 -21.077033 47.943944 -1.599259 10.853359 1.632630 -0.877373 67.656735 -21.708513 25.179012 -9.846296 29.584594 -2.321762 -0.673306 1.237082 10.274744 -11.774943 25.298279 -4.539709 7.125000 0.000000 0.000000 11.374984 -5.714084 10.371910
-0.284060 17.275821 5.417401 5.689061 -0.618610 -2.284036 13.604901 1.326504 -2.227290 -44.421266 -12.233334 5.208662 -2.434727 9.064183 24.488788 -0.462436 5.408370 -9.948121 0.293806 3.485267 9.632922 -16.134082 -1.027898 -1.123401 26.643109 15.676988 -25.686297 -6.603580 -20.602178 54.939825 -0.102736 -3.377973 -9.706881 -2.165885 -9.201985 26.430091 -5.683929 0.150499 13.636129 -0.322411 -1.176420 1.644296 5.060173 0.850536 -14.937841 -6.335771 -5.233061 -13.190703 3.684789 -6.549544 14.147722 0.032544 -3.047870 8.235416 -8.665425 -0.174240 0.200353 -75.105941 6.214413 32.416683 14.312782 -31.356028 -3.465744 -0.128531 2.756418 -2.767470 5.948951 22.162890 1.983131 -7.125000 0.000000 0.000000 -21.503013 48.229585 -1.791275 10.881336 1.637208 -0.887247 67.730732 -21.920057 25.041582 -9.987387 29.828319 -2.453684 -0.783997 1.560725 10.088587 -12.895639 29.397714 -5.646511 7.125000 0.000000 0.000000 10.966465 -1.809765 10.804399
-0.289165 17.277898 5.511166 5.815159 -0.537834 -2.219646 13.576481 1.344107 -2.282288 -44.535381 -11.926909 5.717352 -2.504813 8.858683 24.061885 -0.448935 5.332826 -9.939498 0.267769 3.325559 9.186852 -16.101525 -0.993651 -1.079347 26.313087 16.235525 -25.682938 -6.060575 -20.288418 53.287345 -0.090411 -3.675143 -9.804132 -2.267833 -9.401600 27.060836 -5.845536 0.144972 13.551089 -0.353501 -1.206632 1.675527 5.096243 0.839458 -14.846429 -6.255696 -5.251984 -13.311363 3.734571 -6.582222 14.068860 0.035462 -3.054271 8.220315 -8.697827 -0.170147 0.214213 -74.969852 6.058942 32.644357 14.625984 -31.700991 -3.568484 -0.152149 2.761188 -3.144580 5.970435 22.302606 2.005782 -7.125000 0.000000 0.000000 -21.537852 48.357703 -1.864334 10.895388 1.638396 -0.893182 67.813958 -22.022794 25.207192 -10.121538 30.023570 -2.532776 -0.852992 1.673465 9.791237 -13.613415 31.007566 -6.243649 7.125000 0.000000 0.000000 10.687783 -0.213191 10.833997
-0.295367 17.281755 5.605229 5.896930 -0.468112 -2.154586 13.543528 1.362608 -2.340549 -44.593642 -11.615598 6.248297 -2.579772 8.634014 23.593235 -0.448590 5.309680 -9.904290 0.243641 3.175747 8.768574 -16.073005 -0.956646 -1.031307 26.033417 16.836386 -25.660573 -5.511141 -19.963966 51.608617 -0.070327 -4.148745 -10.030747 -2.243931 -9.346787 26.893642 -5.973928 0.141664 13.459848 -0.371100 -1.227134 1.708513 5.130244 0.829946 -14.752275 -6.192483 -5.266229 -13.408618 3.802618 -6.609038 13.963580 0.049978 -3.058617 8.191551 -8.727687 -0.167692 0.227972 -74.850472 5.910243 32.848474 14.918795 -32.021301 -3.664918 -0.167434 2.759487 -3.488117 6.039070 22.364488 2.034738 -7.125000 0.000000 0.000000 -21.504377 48.425239 -1.898429 10.906957 1.636914 -0.898927 67.883887 -22.106159 25.465520 -10.261088 30.209519 -2.595289 -0.907822 1.722871 9.428196 -14.146279 31.871416 -6.647317 7.125000 0.000000 0.000000 10.471688 0.678865 10.775639
-0.303420 17.289120 5.698220 5.847200 -0.446345 -2.084579 13.502992 1.378939 -2.403053 -44.520601 -11.358782 6.837698 -2.662931 8.374160 23.053357 -0.475848 5.423161 -9.899737 0.231463 3.096169 8.546723 -16.057377 -0.910718 -0.971971 25.904156 17.550694 -25.620739 -4.946028 -19.631570 49.884927 -0.038181 -4.948084 -10.559341 -1.935351 -8.720478 24.931141 -5.998446 0.149107 13.389320 -0.344537 -1.215008 1.731653 5.160675 0.830575 -14.691682 -6.197678 -5.275169 -13.426523 3.896023 -6.625476 13.840580 0.088575 -3.062096 8.145866 -8.754528 -0.169657 0.241899 -74.802856 5.803177 32.909581 15.199841 -32.330175 -3.759814 -0.182627 2.751019 -3.728402 6.055185 22.344800 2.040344 -7.125000 0.000000 0.000000 -21.480343 48.416476 -1.891341 10.918740 1.630485 -0.905975 67.917482 -22.191255 25.812915 -10.416818 30.394611 -2.641266 -0.946986 1.713181 8.955762 -14.411423 32.041573 -6.810274 7.125000 0.000000 0.000000 10.349133 0.896398 10.684399
-0.308722 17.295058 5.785962 5.797241 -0.486467 -1.998476 13.467820 1.390809 -2.463772 -44.477843 -11.175072 7.439420 -2.754810 8.101488 22.472921 -0.512332 5.600916 -9.965654 0.228920 3.079650 8.500595 -16.045419 -0.859329 -0.908253 25.721049 18.319931 -25.624641 -4.390991 -19.281496 48.150548 0.000144 -5.626478 -10.800536 -1.818329 -8.476521 24.171268 -5.989862 0.165735 13.369156 -0.316449 -1.187694 1.729218 5.172431 0.840995 -14.696125 -6.229738 -5.255567 -13.341723 3.954701 -6.605451 13.764444 0.121829 -3.053079 8.101899 -8.776318 -0.174329 0.254906 -74.788297 5.713002 32.907775 15.464417 -32.620030 -3.848798 -0.195667 2.728325 -3.790818 5.993067 22.186096 2.009699 -7.125000 0.000000 0.000000 -21.465323 48.281979 -1.815949 10.926379 1.623147 -0.915449 67.964432 -22.284492 25.918178 -10.497278 30.497345 -2.670338 -0.965555 1.723261 8.749734 -14.546420 32.312138 -6.926724 7.125000 0.000000 0.000000 10.302800 1.176035 10.684836
-0.313136 17.300405 5.871850 5.768413 -0.520295 -1.905992 13.434078 1.402116 -2.523021 -44.456326 -11.000231 8.039429 -2.849387 7.824152 21.875959 -0.546783 5.765919 -10.021574 0.225547 3.056098 8.434997 -16.031589 -0.807620 -0.845856 25.486849 19.084877 -25.629494 -3.846008 -18.915364 46.414448 0.038049 -6.242987 -10.980704 -1.770935 -8.371674 23.848828 -5.990264 0.177035 13.373324 -0.292178 -1.170665 1.715617 5.186465 0.849799 -14.725613 -6.258180 -5.220992 -13.239714 3.983825 -6.564990 13.725015 0.143903 -3.035890 8.068884 -8.796011 -0.179755 0.267130 -74.776565 5.622922 32.921542 15.718803 -32.897260 -3.933858 -0.205694 2.701853 -3.834443 5.940263 21.984962 1.977655 -7.125000 0.000000 0.000000 -21.426554 48.112708 -1.719514 10.932951 1.617773 -0.926328 68.016480 -22.394343 25.953994 -10.554821 30.565020 -2.683181 -0.968179 1.710930 8.707136 -14.556634 32.229031 -6.919107 7.125000 0.000000 0.000000 10.293028 1.106845 10.660787
